<svg xmlns="http://www.w3.org/2000/svg" viewBox="0 0 900 600" role="img" aria-label="Dragon and rider above mountains">
  <rect width="900" height="600" fill="#F8FAFC"/>
  <circle cx="720" cy="120" r="70" fill="#F97316" opacity="0.10"/>
  <circle cx="170" cy="160" r="90" fill="#4E9F3D" opacity="0.08"/>

  <path d="M0 470 L180 360 L320 445 L480 330 L650 455 L900 365 L900 600 L0 600 Z" fill="#0F172A" opacity="0.10"/>
  <path d="M0 530 L230 430 L370 510 L540 390 L720 530 L900 445 L900 600 L0 600 Z" fill="#0F172A" opacity="0.14"/>

  <path d="M550 215c-60 0-110 30-150 70 40-15 70-15 110 0-30 25-40 55-38 85 55-15 120-80 140-130 10-25 5-45-20-25-20 15-35 0-42-10z"
        fill="#F97316" opacity="0.95"/>
  <path d="M430 300c-35-20-55-50-55-70 30 10 55 20 80 35-10 10-18 22-25 35z"
        fill="#4E9F3D" opacity="0.35"/>
  <circle cx="520" cy="295" r="10" fill="#0F172A" opacity="0.15"/>
  <circle cx="520" cy="295" r="6" fill="#0F172A" opacity="0.35"/>

  <circle cx="520" cy="302" r="9" fill="#0F172A" opacity="0.08"/>
  <circle cx="520" cy="290" r="10" fill="#0F172A" opacity="0.18"/>
  <circle cx="520" cy="290" r="7" fill="#F8FAFC" opacity="0.9"/>
  <path d="M514 300l-14 30 10 25 24-10-6-22 12-18z" fill="#0F172A" opacity="0.35"/>
</svg>
